# xmcd
#
# Track frame offsets:
#	150
#	6848
#	15958
#	22928
#	31801
#	40237
#	49726
#	58812
#	65689
#	72668
#	82742
#	90854
#	99839
#	110376
#	118410
#	129952
#	139144
#	145944
#	154425
#	161996
#	172578
#	180961
#	191135
#	200894
#	210802
#	221273
#
# Disc length: 3065 seconds
#
# Revision: 0
# Processed by: cddbd v1.5.2PL0 Copyright (c) Steve Scherf et al.
# Submitted via: EZCDAudioConverter 2.2.2.1
#
DISCID=5b0bf71a
DTITLE=Lulu Belle and Scotty - Blue Ridge Mountain Favorites
DYEAR=1900
DGENRE=Country
TTITLE0=Tapping On The Garden Gate (Radio Show 1950 # 3)
TTITLE1=Twilight Is Stealing (Radio Show 1950 # 3)
TTITLE2=De Ladies' Man (Radio Show 1950 # 4)
TTITLE3=Remember Me (Radio Show 1950 # 4)
TTITLE4=You Gotta Quit Kicking My Dog Around (Radio Show 1950 # 5)
TTITLE5=There's Somebody Waiting For Me (Radio Show 1950 # 5)
TTITLE6=Love Me Now (Radio Show 1950 # 5)
TTITLE7=No Dontcha (Radio Show 1950 # 6)
TTITLE8=How Many Biscuits Can You Eat (Radio Show 1950 # 6) [vocal and Jack]
TTITLE9=Darby's Ram (Radio Show 1950 # 6)
TTITLE10=A Petal From A Faded Rose (Radio Show 1950 # 11)
TTITLE11=Home Coming Time In Happy Valley (Radio Show 1950 # 11)
TTITLE12=My Heart Is Where The Mohawk Flows Tonight (Radio Show 1950 # 12)
TTITLE13=Clouds Gonna Roll Away ( Radio Show 1950 # 14)
TTITLE14=One Step More (Radio Show 1950 # 14)
TTITLE15=Have You Seen Rover (Radio Show 1950 # 27)
TTITLE16=Somebody's Tall And Handsome (Radio Show 1950 # 27)
TTITLE17=Please Think Of Me (Radio Show 1950 # 27)
TTITLE18=On Top Of Old Smoky (Radio Show 1950 # 28)
TTITLE19=Mocking Bird Valley (Radio Show 1950 # 28)
TTITLE20=Whistling Mother-In-Law (Radio Show 1950 # 37)
TTITLE21=John Henry (Radio Show 1950 # 51)
TTITLE22=I'm Goin' Back To Whur I Come From (Radio Show 1950 # 53)
TTITLE23=I'll Remember You Love In My Prayers (Radio Show 1950 # 53)
TTITLE24=Carolina Mountain Home (Radio Show 1950 # 54)
TTITLE25=Cindy (Radio Show 1950 # 55)
EXTD=
EXTT0=
EXTT1=
EXTT2=
EXTT3=
EXTT4=
EXTT5=
EXTT6=
EXTT7=
EXTT8=
EXTT9=
EXTT10=
EXTT11=
EXTT12=
EXTT13=
EXTT14=
EXTT15=
EXTT16=
EXTT17=
EXTT18=
EXTT19=
EXTT20=
EXTT21=
EXTT22=
EXTT23=
EXTT24=
EXTT25=
PLAYORDER=
